<svg xmlns="http://www.w3.org/2000/svg" version="1.1" xmlns:xlink="http://www.w3.org/1999/xlink" xmlns:svgjs="http://svgjs.dev/svgjs" width="1040" height="440" preserveAspectRatio="none" viewBox="0 0 1040 440"><g mask="url(&quot;#SvgjsMask1140&quot;)" fill="none"><path d="M988.705,221.76C1008.334,221.846,1026.374,209.865,1035.055,192.26C1042.912,176.326,1036.889,158.184,1027.485,143.111C1018.745,129.103,1005.171,119.193,988.705,117.974C969.642,116.563,948.57,120.266,938.522,136.527C928.096,153.4,932.988,174.767,943.051,191.859C952.944,208.661,969.207,221.675,988.705,221.76" fill="rgba(104, 77, 115, 0.13)" class="triangle-float3"></path><path d="M483.959,443.171C518.191,444.178,552.858,431.937,570.918,402.839C589.903,372.251,590.089,332.922,571.533,302.072C553.501,272.094,518.931,259.139,483.959,258.269C447.095,257.352,406.567,265.373,388.498,297.518C370.664,329.244,385.478,367.533,405.428,397.973C423.173,425.047,451.602,442.22,483.959,443.171" fill="rgba(104, 77, 115, 0.13)" class="triangle-float3"></path><path d="M55.548,391.244C79.069,389.917,97.589,373.561,109.381,353.166C121.188,332.745,126.613,308.275,115.568,287.433C103.872,265.362,80.515,252.333,55.548,251.577C29.137,250.777,2.55,260.983,-11.121,283.594C-25.227,306.925,-24.299,336.718,-9.944,359.897C3.714,381.95,29.649,392.705,55.548,391.244" fill="rgba(104, 77, 115, 0.13)" class="triangle-float2"></path><path d="M743.754,426.205C775.988,427.762,809.638,418.695,827.2,391.62C846.205,362.32,848.742,323.087,829.574,293.894C811.788,266.806,776.154,263.982,743.754,264.532C712.644,265.06,678.638,269.921,662.833,296.722C646.85,323.824,656.52,357.498,673.195,384.18C688.745,409.062,714.447,424.789,743.754,426.205" fill="rgba(104, 77, 115, 0.13)" class="triangle-float3"></path><path d="M826.742,432.775C866.811,435.751,905.341,412.293,924.335,376.887C942.441,343.136,934.967,302.213,913.963,270.185C894.987,241.249,861.342,228.522,826.742,228.074C791.188,227.614,752.757,236.775,735.522,267.876C718.643,298.335,734.538,333.573,751.394,364.044C769.031,395.927,790.406,430.077,826.742,432.775" fill="rgba(104, 77, 115, 0.13)" class="triangle-float2"></path><path d="M1039.806,160.117C1068.545,158.017,1085.319,129.975,1097.69,103.949C1108.013,82.231,1110.697,57.367,1098.495,36.646C1086.463,16.215,1063.515,5.999,1039.806,5.656C1015.414,5.304,991.978,14.84,978.104,34.906C961.893,58.352,952.548,88.064,965.148,113.633C979.036,141.817,1008.47,162.407,1039.806,160.117" fill="rgba(104, 77, 115, 0.13)" class="triangle-float3"></path><path d="M291.881,240.686C326.706,242.36,368.321,244.08,385.709,213.861C403.078,183.676,379.592,149.255,361.673,119.394C344.525,90.817,325.088,60.33,291.881,57.503C254.337,54.306,215.755,72.249,197.944,105.454C180.865,137.293,191.863,175.861,212.475,205.534C230.174,231.014,260.893,239.196,291.881,240.686" fill="rgba(104, 77, 115, 0.13)" class="triangle-float3"></path><path d="M44.898,96.746C72.407,96.84,98.654,81.277,110.514,56.456C121.158,34.179,108.821,10.174,96.478,-11.208C84.133,-32.595,69.591,-56.97,44.898,-57.219C19.957,-57.47,3.878,-33.911,-8.517,-12.267C-20.808,9.196,-30.831,33.801,-19.948,56.011C-7.91,80.579,17.539,96.653,44.898,96.746" fill="rgba(104, 77, 115, 0.13)" class="triangle-float3"></path></g><defs><mask id="SvgjsMask1140"><rect width="1040" height="440" fill="#ffffff"></rect></mask><style>
                @keyframes float1 {
                    0%{transform: translate(0, 0)}
                    50%{transform: translate(-10px, 0)}
                    100%{transform: translate(0, 0)}
                }

                .triangle-float1 {
                    animation: float1 5s infinite;
                }

                @keyframes float2 {
                    0%{transform: translate(0, 0)}
                    50%{transform: translate(-5px, -5px)}
                    100%{transform: translate(0, 0)}
                }

                .triangle-float2 {
                    animation: float2 4s infinite;
                }

                @keyframes float3 {
                    0%{transform: translate(0, 0)}
                    50%{transform: translate(0, -10px)}
                    100%{transform: translate(0, 0)}
                }

                .triangle-float3 {
                    animation: float3 6s infinite;
                }
            </style></defs></svg>