<svg xmlns="http://www.w3.org/2000/svg" version="1.1" xmlns:xlink="http://www.w3.org/1999/xlink" xmlns:svgjs="http://svgjs.dev/svgjs" width="1440" height="560" preserveAspectRatio="none" viewBox="0 0 1440 560"><g mask="url(&quot;#SvgjsMask1643&quot;)" fill="none"><g mask="url(&quot;#SvgjsMask1645&quot;)"><path d="M157.5 292.5L202.5 247.5L247.5 247.5L292.5 247.5M202.5 292.5L247.5 337.5L292.5 337.5M67.5 292.5L112.5 247.5L157.5 247.5M-22.5 292.5L22.5 292.5L67.5 292.5L112.5 292.5L157.5 292.5L202.5 292.5L247.5 292.5L292.5 292.5" stroke="url(&quot;#SvgjsLinearGradient1644&quot;)" stroke-width="7.5"></path><path d="M281.25 292.5 a11.25 11.25 0 1 0 22.5 0 a11.25 11.25 0 1 0 -22.5 0zM281.25 247.5 a11.25 11.25 0 1 0 22.5 0 a11.25 11.25 0 1 0 -22.5 0zM281.25 337.5 a11.25 11.25 0 1 0 22.5 0 a11.25 11.25 0 1 0 -22.5 0zM146.25 247.5 a11.25 11.25 0 1 0 22.5 0 a11.25 11.25 0 1 0 -22.5 0z" fill="url(&quot;#SvgjsLinearGradient1644&quot;)"></path><path d="M157.5 202.5L202.5 157.5L247.5 157.5L292.5 157.5M22.5 247.5L67.5 247.5M-22.5 247.5L22.5 247.5L67.5 202.5L112.5 202.5L157.5 202.5L202.5 202.5L247.5 202.5" stroke="url(&quot;#SvgjsLinearGradient1644&quot;)" stroke-width="7.5"></path><path d="M236.25 202.5 a11.25 11.25 0 1 0 22.5 0 a11.25 11.25 0 1 0 -22.5 0zM281.25 157.5 a11.25 11.25 0 1 0 22.5 0 a11.25 11.25 0 1 0 -22.5 0zM56.25 247.5 a11.25 11.25 0 1 0 22.5 0 a11.25 11.25 0 1 0 -22.5 0z" fill="url(&quot;#SvgjsLinearGradient1644&quot;)"></path><path d="M22.5 337.5L67.5 337.5L112.5 337.5L157.5 337.5L202.5 337.5M-22.5 337.5L22.5 337.5L67.5 382.5" stroke="url(&quot;#SvgjsLinearGradient1644&quot;)" stroke-width="7.5"></path><path d="M56.25 382.5 a11.25 11.25 0 1 0 22.5 0 a11.25 11.25 0 1 0 -22.5 0zM191.25 337.5 a11.25 11.25 0 1 0 22.5 0 a11.25 11.25 0 1 0 -22.5 0z" fill="url(&quot;#SvgjsLinearGradient1644&quot;)"></path><path d="M-22.5 202.5L22.5 202.5" stroke="url(&quot;#SvgjsLinearGradient1644&quot;)" stroke-width="7.5"></path><path d="M11.25 202.5 a11.25 11.25 0 1 0 22.5 0 a11.25 11.25 0 1 0 -22.5 0z" fill="url(&quot;#SvgjsLinearGradient1644&quot;)"></path><path d="M67.5 157.5L112.5 112.5M22.5 157.5L67.5 112.5M-22.5 157.5L22.5 157.5L67.5 157.5L112.5 157.5" stroke="url(&quot;#SvgjsLinearGradient1644&quot;)" stroke-width="7.5"></path><path d="M101.25 157.5 a11.25 11.25 0 1 0 22.5 0 a11.25 11.25 0 1 0 -22.5 0zM101.25 112.5 a11.25 11.25 0 1 0 22.5 0 a11.25 11.25 0 1 0 -22.5 0zM56.25 112.5 a11.25 11.25 0 1 0 22.5 0 a11.25 11.25 0 1 0 -22.5 0z" fill="url(&quot;#SvgjsLinearGradient1644&quot;)"></path></g></g><defs><mask id="SvgjsMask1643"><rect width="1440" height="560" fill="#ffffff"></rect></mask><linearGradient x1="0" y1="280" x2="360" y2="280" gradientUnits="userSpaceOnUse" id="SvgjsLinearGradient1644"><stop stop-color="#3a7cc3" offset="0"></stop><stop stop-color="#dd1133" offset="1"></stop></linearGradient><mask id="SvgjsMask1645"><rect width="1440" height="560" fill="white"></rect><path d="M286.87 292.5 a5.63 5.63 0 1 0 11.26 0 a5.63 5.63 0 1 0 -11.26 0zM286.87 247.5 a5.63 5.63 0 1 0 11.26 0 a5.63 5.63 0 1 0 -11.26 0zM286.87 337.5 a5.63 5.63 0 1 0 11.26 0 a5.63 5.63 0 1 0 -11.26 0zM151.87 247.5 a5.63 5.63 0 1 0 11.26 0 a5.63 5.63 0 1 0 -11.26 0z" fill="black"></path><path d="M241.87 202.5 a5.63 5.63 0 1 0 11.26 0 a5.63 5.63 0 1 0 -11.26 0zM286.87 157.5 a5.63 5.63 0 1 0 11.26 0 a5.63 5.63 0 1 0 -11.26 0zM61.87 247.5 a5.63 5.63 0 1 0 11.26 0 a5.63 5.63 0 1 0 -11.26 0z" fill="black"></path><path d="M61.87 382.5 a5.63 5.63 0 1 0 11.26 0 a5.63 5.63 0 1 0 -11.26 0zM196.87 337.5 a5.63 5.63 0 1 0 11.26 0 a5.63 5.63 0 1 0 -11.26 0z" fill="black"></path><path d="M16.87 202.5 a5.63 5.63 0 1 0 11.26 0 a5.63 5.63 0 1 0 -11.26 0z" fill="black"></path><path d="M106.87 157.5 a5.63 5.63 0 1 0 11.26 0 a5.63 5.63 0 1 0 -11.26 0zM106.87 112.5 a5.63 5.63 0 1 0 11.26 0 a5.63 5.63 0 1 0 -11.26 0zM61.87 112.5 a5.63 5.63 0 1 0 11.26 0 a5.63 5.63 0 1 0 -11.26 0z" fill="black"></path></mask></defs></svg>