<svg xmlns="http://www.w3.org/2000/svg" version="1.1" xmlns:xlink="http://www.w3.org/1999/xlink" xmlns:svgjs="http://svgjs.dev/svgjs" viewBox="0 0 800 800"><defs><linearGradient x1="50%" y1="0%" x2="50%" y2="100%" id="nnneon-grad"><stop stop-color="hsl(184, 74%, 44%)" stop-opacity="1" offset="0%"></stop><stop stop-color="hsl(270, 73%, 53%)" stop-opacity="1" offset="100%"></stop></linearGradient><filter id="nnneon-filter" x="-100%" y="-100%" width="400%" height="400%" filterUnits="objectBoundingBox" primitiveUnits="userSpaceOnUse" color-interpolation-filters="sRGB">
	<feGaussianBlur stdDeviation="23 15" x="0%" y="0%" width="100%" height="100%" in="SourceGraphic" edgeMode="none" result="blur"></feGaussianBlur></filter><filter id="nnneon-filter2" x="-100%" y="-100%" width="400%" height="400%" filterUnits="objectBoundingBox" primitiveUnits="userSpaceOnUse" color-interpolation-filters="sRGB">
	<feGaussianBlur stdDeviation="77 77" x="0%" y="0%" width="100%" height="100%" in="SourceGraphic" edgeMode="none" result="blur"></feGaussianBlur></filter></defs><g stroke-width="37" stroke="url(#nnneon-grad)" fill="none"><path d="M376.8290415049802 65.81222139797524C391.1672306216984 57.53555502355414 408.8327693783016 57.53555502355414 423.1709584950198 65.81453849382473L677.8290607386858 212.8412214322741C692.1672498554042 221.1178878066952 701.0000192337058 236.41767170095682 701.0000192337058 252.97332154564856V547.0266874225473C701.0000192337058 563.582337267239 692.1672498554042 578.8821211615007 677.8290607386858 587.1611046317712L423.1709584950198 734.1877875702205C408.8327693783016 742.4644539446416 391.1672306216984 742.4644539446416 376.8290415049802 734.1854704743712L122.17093926131406 587.1587875359218C107.83275014459582 578.8821211615007 98.99998076629424 563.582337267239 98.99998076629424 547.0266874225473V252.97332154564856C98.99998076629424 236.41767170095682 107.83275014459582 221.1178878066952 122.17093926131406 212.83890433642466L376.8290415049802 65.81222139797524Z " filter="url(#nnneon-filter)"></path><path d="M481.8290415049802 65.81222139797524C496.1672306216984 57.53555502355414 513.8327693783016 57.53555502355414 528.1709584950198 65.81453849382473L782.8290607386858 212.8412214322741C797.1672498554042 221.1178878066952 806.0000192337058 236.41767170095682 806.0000192337058 252.97332154564856V547.0266874225473C806.0000192337058 563.582337267239 797.1672498554042 578.8821211615007 782.8290607386858 587.1611046317712L528.1709584950198 734.1877875702205C513.8327693783016 742.4644539446416 496.1672306216984 742.4644539446416 481.8290415049802 734.1854704743712L227.17093926131406 587.1587875359218C212.83275014459582 578.8821211615007 203.99998076629424 563.582337267239 203.99998076629424 547.0266874225473V252.97332154564856C203.99998076629424 236.41767170095682 212.83275014459582 221.1178878066952 227.17093926131406 212.83890433642466L481.8290415049802 65.81222139797524Z " filter="url(#nnneon-filter2)" opacity="0.36"></path><path d="M271.8290415049802 65.81222139797524C286.1672306216984 57.53555502355414 303.8327693783016 57.53555502355414 318.1709584950198 65.81453849382473L572.8290607386858 212.8412214322741C587.1672498554042 221.1178878066952 596.0000192337058 236.41767170095682 596.0000192337058 252.97332154564856V547.0266874225473C596.0000192337058 563.582337267239 587.1672498554042 578.8821211615007 572.8290607386858 587.1611046317712L318.1709584950198 734.1877875702205C303.8327693783016 742.4644539446416 286.1672306216984 742.4644539446416 271.8290415049802 734.1854704743712L17.17093926131406 587.1587875359218C2.8327501445958205 578.8821211615007 -6.000019233705757 563.582337267239 -6.000019233705757 547.0266874225473V252.97332154564856C-6.000019233705757 236.41767170095682 2.8327501445958205 221.1178878066952 17.17093926131406 212.83890433642466L271.8290415049802 65.81222139797524Z " filter="url(#nnneon-filter2)" opacity="0.36"></path><path d="M376.8290415049802 65.81222139797524C391.1672306216984 57.53555502355414 408.8327693783016 57.53555502355414 423.1709584950198 65.81453849382473L677.8290607386858 212.8412214322741C692.1672498554042 221.1178878066952 701.0000192337058 236.41767170095682 701.0000192337058 252.97332154564856V547.0266874225473C701.0000192337058 563.582337267239 692.1672498554042 578.8821211615007 677.8290607386858 587.1611046317712L423.1709584950198 734.1877875702205C408.8327693783016 742.4644539446416 391.1672306216984 742.4644539446416 376.8290415049802 734.1854704743712L122.17093926131406 587.1587875359218C107.83275014459582 578.8821211615007 98.99998076629424 563.582337267239 98.99998076629424 547.0266874225473V252.97332154564856C98.99998076629424 236.41767170095682 107.83275014459582 221.1178878066952 122.17093926131406 212.83890433642466L376.8290415049802 65.81222139797524Z "></path></g></svg>